# xmcd CD database file
#
# Track frame offsets:
#	187
#	16327
#	34062
#	50225
#
# Disc length: 906 seconds
#
# Revision: 0
# Processed by: cddbd v1.5.1PL0 Copyright (c) Steve Scherf et al.
# Submitted via: CDex 1.51
#
DISCID=2e038804
DTITLE=小泉今日子 - 見逃してくれよ！
DYEAR=1991
DGENRE=JPop
TTITLE0=見逃してくれよ！
TTITLE1=Good Morning-Call
TTITLE2=見逃してくれよ！(カラオケ)
TTITLE3=Good Morning-Call(カラオケ)
EXTD=YEAR: 1991
EXTT0=
EXTT1=
EXTT2=
EXTT3=
PLAYORDER=
